# xmcd
#
# Track frame offsets:
#	150
#	20157
#	34622
#	49843
#	65430
#	86725
#	104682
#	114808
#	136673
#	152664
#	170703
#	196918
#	220098
#	242866
#	258272
#	271147
#	288960
#	299546
#	312947
#	327659
#
# Disc length: 4761 seconds
#
# Revision: 0
# Processed by: cddbd v1.5.2PL0 Copyright (c) Steve Scherf et al.
# Submitted via: audiograbber 1.83.01
#
DISCID=2a129714
DTITLE=Kultur Spiegel - Biker Delights - Disc 2
DYEAR=1900
DGENRE=
TTITLE0=Gary Moore - Oh Pretty Woman
TTITLE1=The Jeff Healey Band - I Got A Line On You
TTITLE2=The Fabulous Thunderbirds - Tuff Enuff
TTITLE3=The Gregg Allman Band - Demons
TTITLE4=Buddy Guy - Mustang Sally
TTITLE5=Ram Jam - Black Betty
TTITLE6=Stevie Ray Vaughan and Double Trouble - Boot Hill
TTITLE7=George Thorogood and The Destroyers - Bad To The Bone
TTITLE8=Johnny Winter - Rock And Roll, Hoochie Koo
TTITLE9=Robert Cray - Smoking Gun
TTITLE10=Lynyrd Skynyrd - That Smell
TTITLE11=Junior Wells - What My Mama Told Me
TTITLE12=Dickey Betts and Great Southern - California Blues
TTITLE13=Moby Grape - Can't Be So Bad
TTITLE14=Chicken Shag - Remington Ride
TTITLE15=The Allman Brothers Band - Brothers Of The Road
TTITLE16=Fleetwood Mac - Stop Messin' Around
TTITLE17=Taj Mahal - Statesboro Blues
TTITLE18=Nathan Cavaleri - Lou´s Blues
TTITLE19=James "Blood" Ulmer - Blues Alnight
EXTD=
EXTT0=
EXTT1=
EXTT2=
EXTT3=
EXTT4=
EXTT5=
EXTT6=
EXTT7=
EXTT8=
EXTT9=
EXTT10=
EXTT11=
EXTT12=
EXTT13=
EXTT14=
EXTT15=
EXTT16=
EXTT17=
EXTT18=
EXTT19=
PLAYORDER=
